REM DIRINDEX 1\2,1\3,1\4,1\5,1\6,1\7,1\8
REM DIRNAME folder01,folder02,folder03,folder04,folder05,folder06,folder07,folder08
TITLE ""
FILE "001 でる文21.mp3" MP3
  TRACK 01 AUDIO
    TITLE "0:"
    INDEX 01 00:00:00
  TRACK 02 AUDIO
    TITLE "8:cjc150_0910"
    INDEX 01 00:00:01
  TRACK 03 AUDIO
    TITLE "0:"
    INDEX 01 00:01:38
  TRACK 04 AUDIO
    TITLE "8:cjc150_0911"
    INDEX 01 00:01:69
  TRACK 05 AUDIO
    TITLE "0:"
    INDEX 01 00:03:53
  TRACK 06 AUDIO
    TITLE "2:cjc150_0912"
    INDEX 01 00:04:42
  TRACK 07 AUDIO
    TITLE "0:"
    INDEX 01 00:09:55
  TRACK 08 AUDIO
    TITLE "8:cjc150_0913"
    INDEX 01 00:10:74
  TRACK 09 AUDIO
    TITLE "0:"
    INDEX 01 00:13:53
  TRACK 10 AUDIO
    TITLE "3:cjc150_0914"
    INDEX 01 00:14:29
  TRACK 11 AUDIO
    TITLE "3:cjc150_0915"
    INDEX 01 00:15:54
  TRACK 12 AUDIO
    TITLE "3:cjc150_0916"
    INDEX 01 00:17:02
  TRACK 13 AUDIO
    TITLE "3:cjc150_0917"
    INDEX 01 00:18:60
  TRACK 14 AUDIO
    TITLE "3:cjc150_0918"
    INDEX 01 00:20:45
  TRACK 15 AUDIO
    TITLE "3:cjc150_0919"
    INDEX 01 00:21:66
  TRACK 16 AUDIO
    TITLE "3:cjc150_0920"
    INDEX 01 00:23:18
  TRACK 17 AUDIO
    TITLE "3:cjc150_0921"
    INDEX 01 00:25:62
  TRACK 18 AUDIO
    TITLE "8:cjc150_0922"
    INDEX 01 00:28:21
  TRACK 19 AUDIO
    TITLE "0:"
    INDEX 01 00:30:73
  TRACK 20 AUDIO
    TITLE "4:cjc150_0923"
    INDEX 01 00:31:45
  TRACK 21 AUDIO
    TITLE "4:cjc150_0924"
    INDEX 01 00:32:74
  TRACK 22 AUDIO
    TITLE "4:cjc150_0925"
    INDEX 01 00:34:53
  TRACK 23 AUDIO
    TITLE "4:cjc150_0926"
    INDEX 01 00:37:20
  TRACK 24 AUDIO
    TITLE "4:cjc150_0927"
    INDEX 01 00:40:17
  TRACK 25 AUDIO
    TITLE "4:cjc150_0928"
    INDEX 01 00:42:59
  TRACK 26 AUDIO
    TITLE "8:cjc150_0929"
    INDEX 01 00:45:49
  TRACK 27 AUDIO
    TITLE "0:"
    INDEX 01 00:48:42
  TRACK 28 AUDIO
    TITLE "5:cjc150_0930"
    INDEX 01 00:49:10
  TRACK 29 AUDIO
    TITLE "5:cjc150_0931"
    INDEX 01 00:51:09
  TRACK 30 AUDIO
    TITLE "5:cjc150_0932"
    INDEX 01 00:53:43
  TRACK 31 AUDIO
    TITLE "5:cjc150_0933"
    INDEX 01 00:55:03
  TRACK 32 AUDIO
    TITLE "5:cjc150_0934"
    INDEX 01 00:56:24
  TRACK 33 AUDIO
    TITLE "5:cjc150_0935"
    INDEX 01 00:57:45
  TRACK 34 AUDIO
    TITLE "5:cjc150_0936"
    INDEX 01 01:00:08
  TRACK 35 AUDIO
    TITLE "5:cjc150_0937"
    INDEX 01 01:01:66
  TRACK 36 AUDIO
    TITLE "5:cjc150_0938"
    INDEX 01 01:03:47
  TRACK 37 AUDIO
    TITLE "5:cjc150_0939"
    INDEX 01 01:05:60
  TRACK 38 AUDIO
    TITLE "5:cjc150_0940"
    INDEX 01 01:08:21
  TRACK 39 AUDIO
    TITLE "5:cjc150_0941"
    INDEX 01 01:09:36
  TRACK 40 AUDIO
    TITLE "5:cjc150_0942"
    INDEX 01 01:10:67
  TRACK 41 AUDIO
    TITLE "5:cjc150_0943"
    INDEX 01 01:12:66
  TRACK 42 AUDIO
    TITLE "5:cjc150_0944"
    INDEX 01 01:16:24
  TRACK 43 AUDIO
    TITLE "5:cjc150_0945"
    INDEX 01 01:18:68
  TRACK 44 AUDIO
    TITLE "8:cjc150_0946"
    INDEX 01 01:21:37
  TRACK 45 AUDIO
    TITLE "0:"
    INDEX 01 01:24:18
  TRACK 46 AUDIO
    TITLE "6:cjc150_0947"
    INDEX 01 01:25:00
  TRACK 47 AUDIO
    TITLE "6:cjc150_0948"
    INDEX 01 01:26:70
  TRACK 48 AUDIO
    TITLE "6:cjc150_0949"
    INDEX 01 01:29:09
  TRACK 49 AUDIO
    TITLE "6:cjc150_0950"
    INDEX 01 01:30:36
  TRACK 50 AUDIO
    TITLE "6:cjc150_0951"
    INDEX 01 01:31:59
  TRACK 51 AUDIO
    TITLE "6:cjc150_0952"
    INDEX 01 01:34:54
  TRACK 52 AUDIO
    TITLE "6:cjc150_0953"
    INDEX 01 01:38:10
  TRACK 53 AUDIO
    TITLE "6:cjc150_0954"
    INDEX 01 01:40:52
  TRACK 54 AUDIO
    TITLE "6:cjc150_0955"
    INDEX 01 01:43:15
  TRACK 55 AUDIO
    TITLE "6:cjc150_0956"
    INDEX 01 01:45:16
  TRACK 56 AUDIO
    TITLE "6:cjc150_0957"
    INDEX 01 01:48:36
  TRACK 57 AUDIO
    TITLE "6:cjc150_0958"
    INDEX 01 01:51:03
  TRACK 58 AUDIO
    TITLE "8:cjc150_0959"
    INDEX 01 01:52:55
  TRACK 59 AUDIO
    TITLE "0:"
    INDEX 01 01:54:33
  TRACK 60 AUDIO
    TITLE "7:cjc150_0960"
    INDEX 01 01:55:20
  TRACK 61 AUDIO
    TITLE "7:cjc150_0961"
    INDEX 01 02:00:33
  TRACK 62 AUDIO
    TITLE "0:"
    INDEX 01 02:05:58
